# xmcd
#
# Track frame offsets: 
#        150
#        14612
#        28455
#        40117
#        53260
#        64832
#        74970
#        86660
#        97867
#        110280
#        124020
#        135340
#        149517
#        161495
#        175062
#        188550
#        201032
#
# Disc length: 2825 seconds
#
# Revision: 0
# Processed by: cddbd v1.4PL0 Copyright (c) Steve Scherf et al.
# Submitted via: ExactAudioCopy v0.90b4
#
DISCID=e90b0711
DTITLE=Freddy King - All His Hits
DYEAR=1995
DGENRE=Blues
TTITLE0=You've Got To Love Her With A Feeling
TTITLE1=Have You Ever Loved A Woman?
TTITLE2=Hide Away
TTITLE3=Lonesome Whistle Blues
TTITLE4=San-Ho-Say
TTITLE5=See See Baby
TTITLE6=I'm Tore Down
TTITLE7=Heads Up
TTITLE8=Christmas Tears
TTITLE9=Side Tracked
TTITLE10=What About Love?
TTITLE11=Look Ma, I'm Crying
TTITLE12=(The Welfare) Turns It's Back On You
TTITLE13=Onion Rings
TTITLE14=Hi Rise
TTITLE15=Some Other Day, Some Other Time
TTITLE16=Full Time Love
EXTD=
EXTT0=
EXTT1=
EXTT2=
EXTT3=
EXTT4=
EXTT5=
EXTT6=
EXTT7=
EXTT8=
EXTT9=
EXTT10=
EXTT11=
EXTT12=
EXTT13=
EXTT14=
EXTT15=
EXTT16=
PLAYORDER=
